# xmcd
#
# Track frame offsets:
#	150
#	16848
#	31242
#	43235
#	61780
#	79727
#	92460
#	104495
#	119929
#	138898
#	159398
#	175406
#	192364
#	199911
#	216769
#	239621
#	259723
#	273465
#	290586
#	311387
#	334292
#
# Disc length: 4544 seconds
#
# Revision: 0
# Processed by: cddbd v1.5.2PL0 Copyright (c) Steve Scherf et al.
# Submitted via: audiograbber 1.83.01
#
DISCID=3711be15
DTITLE=NOTIS SFAKIANAKIS (BY DJ ZRAF) - мувтес... лацийес [CD 2)
DYEAR=2007
DGENRE=каийа
TTITLE0=аетос
TTITLE1=демтяо
TTITLE2=дамеио фыгс
TTITLE3=г ьувг лоу пеяилемеи
TTITLE4=йи ам ле бяеис
TTITLE5=танидеье ле
TTITLE6=ема ле тг муйта
TTITLE7=де се вяеиафолаи
TTITLE8=ацапг ти дусйоко пяацла
TTITLE9=ема цяалла
TTITLE10=йаккитевмгс
TTITLE11=сыла лоу
TTITLE12=гкиос хеос
TTITLE13=лпгйам стгм покг ои овтяои
TTITLE14=цеммехкиа
TTITLE15=стекка г слуямиа
TTITLE16=диахгйг
TTITLE17=апоье
TTITLE18=циа лема
TTITLE19=лгм пкгсиафеис
TTITLE20=аповыягсг (цеммехкиа)
EXTD=
EXTT0=
EXTT1=
EXTT2=
EXTT3=
EXTT4=
EXTT5=
EXTT6=
EXTT7=
EXTT8=
EXTT9=
EXTT10=
EXTT11=
EXTT12=
EXTT13=
EXTT14=
EXTT15=
EXTT16=
EXTT17=
EXTT18=
EXTT19=
EXTT20=
PLAYORDER=
